<?xml version="1.0" encoding="UTF-8" standalone="no"?>
<!-- version_tiles — Versione tileset 3TZ/3D Tiles: foglio con i cubetti
     Disegnato da Claude il 6 ott 2026 per E.D., approvato da E.D. il 6 ott 2026 (APPROVATE.md) (glifi da EMtools), nella cornice DTC. -->
<svg xmlns="http://www.w3.org/2000/svg" version="1.1" viewBox="0 0 87.1222 87.1222" xmlns:c2pa="http://c2pa.org/manifest"><metadata><c2pa:manifest>AAAWgmp1bWIAAAAeanVtZGMycGEAEQAQgAAAqgA4m3EDYzJwYQAAABZcanVtYgAAAEdqdW1kYzJtYQARABCAAACqADibcQN1cm46YzJwYTo5MTNjNDI3OS1iY2MwLTQyM2MtYTY2Yy1kZmFkODgzZTVhMjkAAAADl2p1bWIAAAApanVtZGMyYXMAEQAQgAAAqgA4m3EDYzJwYS5hc3NlcnRpb25zAAAAALxqdW1iAAAARGp1bWRjYm9yABEAEIAAAKoAOJtxE2MycGEuaW5ncmVkaWVudC52MwAAAAAYYzJzaDN+PCNyIe3iGDuTqIBWQKEAAABwY2JvcqNpZGM6Zm9ybWF0bWltYWdlL3N2Zyt4bWxqaW5zdGFuY2VJRHgseG1wOmlpZDpjNDkyMDdjYy0xYWVlLTRlZmUtYjY2ZC0xMDMzZTZmN2M4NDNscmVsYXRpb25zaGlwaHBhcmVudE9mAAAB4mp1bWIAAABBanVtZGNib3IAEQAQgAAAqgA4m3ETYzJwYS5hY3Rpb25zLnYyAAAAABhjMnNottLNVGNZMwhoqpoppW0yTgAAAZljYm9yomdhY3Rpb25zgqJmYWN0aW9ua2MycGEub3BlbmVkanBhcmFtZXRlcnOha2luZ3JlZGllbnRzgaJjdXJseC1zZWxmI2p1bWJmPWMycGEuYXNzZXJ0aW9ucy9jMnBhLmluZ3JlZGllbnQudjNkaGFzaFgg/guTrHLisIWiDHKSqyd2cQXLZ1usfJXD9HDh8C1UMJukZmFjdGlvbngdY29tLmFudGhyb3BpYy5jbGF1ZGUucHJvdmlkZWRqcGFyYW1ldGVyc6F4H2NvbS5hbnRocm9waWMub3JpZ2luLWNvbmZpZGVuY2VndW5rbm93bmtkZXNjcmlwdGlvbnhmQ2xhdWRlIHByb3ZpZGVkIHRoaXMgZmlsZSBhdCB0aGUgcmVxdWVzdCBvZiBhIHVzZXIgYW5kIG1heSBoYXZlIGNyZWF0ZWQgb3IgbW9kaWZpZWQgdGhlIGZpbGUgY29udGVudHMubXNvZnR3YXJlQWdlbnShZG5hbWVmQ2xhdWRlcmFsbEFjdGlvbnNJbmNsdWRlZPUAAADIanVtYgAAAEBqdW1kY2JvcgARABCAAACqADibcRNjMnBhLmhhc2guZGF0YQAAAAAYYzJzaIAZRGYwgXbvTAZyMRx1Ux4AAACAY2JvcqVjYWxnZnNoYTI1NmNwYWRMAAAAAAAAAAAAAAAAZGhhc2hYIJQZRms5wwHaqUaRbtJh7HUdJ/jB7+v2IxX/gdBaD91gZG5hbWVuanVtYmYgbWFuaWZlc3RqZXhjbHVzaW9uc4GiZXN0YXJ0GQF2Zmxlbmd0aBkeBAAAAj5qdW1iAAAAJ2p1bWRjMmNsABEAEIAAAKoAOJtxA2MycGEuY2xhaW0udjIAAAACD2Nib3KlY2FsZ2ZzaGEyNTZpc2lnbmF0dXJleE1zZWxmI2p1bWJmPS9jMnBhL3VybjpjMnBhOjkxM2M0Mjc5LWJjYzAtNDIzYy1hNjZjLWRmYWQ4ODNlNWEyOS9jMnBhLnNpZ25hdHVyZWppbnN0YW5jZUlEeCx4bXA6aWlkOmQ1ZDg1NWQzLTljZWUtNGQwYS05Yzg0LTk1MzIxMjViODJlZnJjcmVhdGVkX2Fzc2VydGlvbnODomN1cmx4LXNlbGYjanVtYmY9YzJwYS5hc3NlcnRpb25zL2MycGEuaW5ncmVkaWVudC52M2RoYXNoWCD+C5OscuKwhaIMcpKrJ3ZxBctnW6x8lcP0cOHwLVQwm6JjdXJseCpzZWxmI2p1bWJmPWMycGEuYXNzZXJ0aW9ucy9jMnBhLmFjdGlvbnMudjJkaGFzaFggqRrX6Fnc62Unj5Nuad19hCQNcJkVAmAFSuv5Zv22PjuiY3VybHgpc2VsZiNqdW1iZj1jMnBhLmFzc2VydGlvbnMvYzJwYS5oYXNoLmRhdGFkaGFzaFggwQWMVyyMo8kSGNtPSG0ZJsidbAhTMesdu8C5UisHqqV0Y2xhaW1fZ2VuZXJhdG9yX2luZm+jZG5hbWVvQW50aHJvcGljIEZpbGVzZ3ZlcnNpb25lMS4wLjBrc3BlY1ZlcnNpb25lMi40LjAAABA4anVtYgAAAChqdW1kYzJjcwARABCAAACqADibcQNjMnBhLnNpZ25hdHVyZQAAABAIY2JvctKEWQISogEmGCFZAgowggIGMIIBjaADAgECAhRA5aAK7sI50L64g/oGQgU9Z1UTADAKBggqhkjOPQQDAzBJMRcwFQYDVQQKEw5BbnRocm9waWMsIFBCQzEuMCwGA1UEAxMlQW50aHJvcGljIENvbnRlbnQgQ3JlZGVudGlhbHMgUm9vdCBDQTAeFw0yNjA4MDcxODQzNTZaFw0yODA4MDYxOTQzNTZaMEQxFzAVBgNVBAoTDkFudGhyb3BpYywgUEJDMSkwJwYDVQQDEyBBbnRocm9waWMgQ2xhdWRlIENvbnRlbnQgU2lnbmluZzBZMBMGByqGSM49AgEGCCqGSM49AwEHA0IABJh6CmvLUBgFFNU0vUKlOVtE6djd17L5SuwX0LemFisBM3dkd/3cyjxFA3Qo5S46fX0/ihY0VZ7mfb9KF703t5OjWDBWMA4GA1UdDwEB/wQEAwIHgDAVBgNVHSUEDjAMBgorBgEEAYPoXgIBMAwGA1UdEwEB/wQCMAAwHwYDVR0jBBgwFoAUzlHiBIFOZFsj+OPEz5o+nMHXXMIwCgYIKoZIzj0EAwMDZwAwZAIwMXMdFJ4BetLLVY7ORuE9noqbbAZOZn/aArXyTwFAZfKrPzxF2vPoJNf1+UCdg1XGAjBwX1zd9WGqYkqmL5SFqw1QySjr1zJfpJM9+1rdDwSPLMOPOjKuiXjoU/pUUeG9RwmhY3BhZFkNngAAAAAAAAAAAAAAAAAAAAAAAAAAAAAAAAAAAAAAAAAAAAAAAAAAAAAAAAAAAAAAAAAAAAAAAAAAAAAAAAAAAAAAAAAAAAAAAAAAAAAAAAAAAAAAAAAAAAAAAAAAAAAAAAAAAAAAAAAAAAAAAAAAAAAAAAAAAAAAAAAAAAAAAAAAAAAAAAAAAAAAAAAAAAAAAAAAAAAAAAAAAAAAAAAAAAAAAAAAAAAAAAAAAAAAAAAAAAAAAAAAAAAAAAAAAAAAAAAAAAAAAAAAAAAAAAAAAAAAAAAAAAAAAAAAAAAAAAAAAAAAAAAAAAAAAAAAAAAAAAAAAAAAAAAAAAAAAAAAAAAAAAAAAAAAAAAAAAAAAAAAAAAAAAAAAAAAAAAAAAAAAAAAAAAAAAAAAAAAAAAAAAAAAAAAAAAAAAAAAAAAAAAAAAAAAAAAAAAAAAAAAAAAAAAAAAAAAAAAAAAAAAAAAAAAAAAAAAAAAAAAAAAAAAAAAAAAAAAAAAAAAAAAAAAAAAAAAAAAAAAAAAAAAAAAAAAAAAAAAAAAAAAAAAAAAAAAAAAAAAAAAAAAAAAAAAAAAAAAAAAAAAAAAAAAAAAAAAAAAAAAAAAAAAAAAAAAAAAAAAAAAAAAAAAAAAAAAAAAAAAAAAAAAAAAAAAAAAAAAAAAAAAAAAAAAAAAAAAAAAAAAAAAAAAAAAAAAAAAAAAAAAAAAAAAAAAAAAAAAAAAAAAAAAAAAAAAAAAAAAAAAAAAAAAAAAAAAAAAAAAAAAAAAAAAAAAAAAAAAAAAAAAAAAAAAAAAAAAAAAAAAAAAAAAAAAAAAAAAAAAAAAAAAAAAAAAAAAAAAAAAAAAAAAAAAAAAAAAAAAAAAAAAAAAAAAAAAAAAAAAAAAAAAAAAAAAAAAAAAAAAAAAAAAAAAAAAAAAAAAAAAAAAAAAAAAAAAAAAAAAAAAAAAAAAAAAAAAAAAAAAAAAAAAAAAAAAAAAAAAAAAAAAAAAAAAAAAAAAAAAAAAAAAAAAAAAAAAAAAAAAAAAAAAAAAAAAAAAAAAAAAAAAAAAAAAAAAAAAAAAAAAAAAAAAAAAAAAAAAAAAAAAAAAAAAAAAAAAAAAAAAAAAAAAAAAAAAAAAAAAAAAAAAAAAAAAAAAAAAAAAAAAAAAAAAAAAAAAAAAAAAAAAAAAAAAAAAAAAAAAAAAAAAAAAAAAAAAAAAAAAAAAAAAAAAAAAAAAAAAAAAAAAAAAAAAAAAAAAAAAAAAAAAAAAAAAAAAAAAAAAAAAAAAAAAAAAAAAAAAAAAAAAAAAAAAAAAAAAAAAAAAAAAAAAAAAAAAAAAAAAAAAAAAAAAAAAAAAAAAAAAAAAAAAAAAAAAAAAAAAAAAAAAAAAAAAAAAAAAAAAAAAAAAAAAAAAAAAAAAAAAAAAAAAAAAAAAAAAAAAAAAAAAAAAAAAAAAAAAAAAAAAAAAAAAAAAAAAAAAAAAAAAAAAAAAAAAAAAAAAAAAAAAAAAAAAAAAAAAAAAAAAAAAAAAAAAAAAAAAAAAAAAAAAAAAAAAAAAAAAAAAAAAAAAAAAAAAAAAAAAAAAAAAAAAAAAAAAAAAAAAAAAAAAAAAAAAAAAAAAAAAAAAAAAAAAAAAAAAAAAAAAAAAAAAAAAAAAAAAAAAAAAAAAAAAAAAAAAAAAAAAAAAAAAAAAAAAAAAAAAAAAAAAAAAAAAAAAAAAAAAAAAAAAAAAAAAAAAAAAAAAAAAAAAAAAAAAAAAAAAAAAAAAAAAAAAAAAAAAAAAAAAAAAAAAAAAAAAAAAAAAAAAAAAAAAAAAAAAAAAAAAAAAAAAAAAAAAAAAAAAAAAAAAAAAAAAAAAAAAAAAAAAAAAAAAAAAAAAAAAAAAAAAAAAAAAAAAAAAAAAAAAAAAAAAAAAAAAAAAAAAAAAAAAAAAAAAAAAAAAAAAAAAAAAAAAAAAAAAAAAAAAAAAAAAAAAAAAAAAAAAAAAAAAAAAAAAAAAAAAAAAAAAAAAAAAAAAAAAAAAAAAAAAAAAAAAAAAAAAAAAAAAAAAAAAAAAAAAAAAAAAAAAAAAAAAAAAAAAAAAAAAAAAAAAAAAAAAAAAAAAAAAAAAAAAAAAAAAAAAAAAAAAAAAAAAAAAAAAAAAAAAAAAAAAAAAAAAAAAAAAAAAAAAAAAAAAAAAAAAAAAAAAAAAAAAAAAAAAAAAAAAAAAAAAAAAAAAAAAAAAAAAAAAAAAAAAAAAAAAAAAAAAAAAAAAAAAAAAAAAAAAAAAAAAAAAAAAAAAAAAAAAAAAAAAAAAAAAAAAAAAAAAAAAAAAAAAAAAAAAAAAAAAAAAAAAAAAAAAAAAAAAAAAAAAAAAAAAAAAAAAAAAAAAAAAAAAAAAAAAAAAAAAAAAAAAAAAAAAAAAAAAAAAAAAAAAAAAAAAAAAAAAAAAAAAAAAAAAAAAAAAAAAAAAAAAAAAAAAAAAAAAAAAAAAAAAAAAAAAAAAAAAAAAAAAAAAAAAAAAAAAAAAAAAAAAAAAAAAAAAAAAAAAAAAAAAAAAAAAAAAAAAAAAAAAAAAAAAAAAAAAAAAAAAAAAAAAAAAAAAAAAAAAAAAAAAAAAAAAAAAAAAAAAAAAAAAAAAAAAAAAAAAAAAAAAAAAAAAAAAAAAAAAAAAAAAAAAAAAAAAAAAAAAAAAAAAAAAAAAAAAAAAAAAAAAAAAAAAAAAAAAAAAAAAAAAAAAAAAAAAAAAAAAAAAAAAAAAAAAAAAAAAAAAAAAAAAAAAAAAAAAAAAAAAAAAAAAAAAAAAAAAAAAAAAAAAAAAAAAAAAAAAAAAAAAAAAAAAAAAAAAAAAAAAAAAAAAAAAAAAAAAAAAAAAAAAAAAAAAAAAAAAAAAAAAAAAAAAAAAAAAAAAAAAAAAAAAAAAAAAAAAAAAAAAAAAAAAAAAAAAAAAAAAAAAAAAAAAAAAAAAAAAAAAAAAAAAAAAAAAAAAAAAAAAAAAAAAAAAAAAAAAAAAAAAAAAAAAAAAAAAAAAAAAAAAAAAAAAAAAAAAAAAAAAAAAAAAAAAAAAAAAAAAAAAAAAAAAAAAAAAAAAAAAAAAAAAAAAAAAAAAAAAAAAAAAAAAAAAAAAAAAAAAAAAAAAAAAAAAAAAAAAAAAAAAAAAAAAAAAAAAAAAAAAAAAAAAAAAAAAAAAAAAAAAAAAAAAAAAAAAAAAAAAAAAAAAAAAAAAAAAAAAAAAAAAAAAAAAAAAAAAAAAAAAAAAAAAAAAAAAAAAAAAAAAAAAAAAAAAAAAAAAAAAAAAAAAAAAAAAAAAAAAAAAAAAAAAAAAAAAAAAAAAAAAAAAAAAAAAAAAAAAAAAAAAAAAAAAAAAAAAAAAAAAAAAAAAAAAAAAAAAAAAAAAAAAAAAAAAAAAAAAAAAAAAAAAAAAAAAAAAAAAAAAAAAAAAAAAAAAAAAAAAAAAAAAAAAAAAAAAAAAAAAAAAAAAAAAAAAAAAAAAAAAAAAAAAAAAAAAAAAAAAAAAAAAAAAAAAAAAAAAAAAAAAAAAAAAAAAAAAAAAAAAAAAAAAAAAAAAAAAAAAAAAAAAAAAAAAAAAAAAAAAAAAAAAAAAAAAAAAAAAAAAAAAAAAAAAAAAAAAAAAAAAAAAAAAAAAAAAAAAAAAAAAAAAAAAAAAAAAAAAAAAAAAAAAAAAAAAAAAAAAAAAAAAAAAAAAAAAAAAAAAAAAAAAAAAAAAAAAAAAAAAAAAAAAAAAAAAAAAAAAAAAAAAAAAAAAAAAAAAAAAAAAAAAAAAAAAAAAAAAAAAAAAAAAAAAAAAAAAAAAAAAAAAAAAAAAAAAAAAAAAAAAAAAAAAAAAAAAAAAAAAAAAAAAAAAAAAAAAAAAAAAAAAAAAAAAAAAAAAAAAAAAAAAAAAAAAAAAAAAAAAAAAAAAAAAAAAAAAAAAAAAAAAAAAAAAAAAAAAAAAAAAAAAAAAAAAAAAAAAAAAAAAAAAAAAAAAAAAAAAAAAAAAAAAAAAAAAAAAAAAAAAAAAAAAAAAAAAAAAAAAAAAAAAAAAAAAAAAAAAAAAAAAAAAAAAAAAAAAAAAAAAAAAAAAAAAAAAAAAAAAAAAAAAAAAAAAAAAAAAAAAAAAAAAAAAAAAAAAAAAAAAAAAAAAAAAAAAAAAAAAAAAAAAAAAAAAAAAAAAAAAAAAAAAAAAAAAAAAAAAAAAAAAAAAAAAAAAAAAAAAAAAAAAAAAAAAAAAAAAAAAAAAAAAAAAAAAAAAAAAAAAAAAAAAAAAAAAAAAAAAAAAAAAAAAAAAAAAAAAAAAAAAAAAAAAAAAAAAAAAAAAAAAAAAAAAAAAAAAAAAAAAAAAAAAAAAAAAAAAAAAAAAAAAAAAAAAAAAAAAAAAAAAAAAAAAAAAAAAAAAAAAAAAAAAAAAAAAAAAAAAAAAAAAAAAAAAAAAAAAAAAAAAAAAAAAAAAAAAAAAAAAAAAAAAAAAAAAAAAAAAAAAAAAAAAAAAAAAAAAAAAAAAAAAAAAAAAAAAAAAAAAAAAAAAAAAAAAAAAAAAAAAAAAAAAAAAAAAAAAAAAAAAAAAAAAAAAAAAAAAAAAAAAAAAAAAAAAAAAAAAAAAAAAAAAAAAAAAAAAAAAAAAAAAAAAAAAAAAAAAAAAAAAAAAAAAAAAAAAAAAAAAAAAAAAAAAAAAAAAAAAAAAAAAAAAAPZYQGwCraGX7pMVhoe3XgHtXl+1stwOXqGkHq8smNdDxWhT2IOy2ezIVqwAQ9tILeT3JsCSilZ6Ta5Goeps0y3pC0w=</c2pa:manifest></metadata>
  <g>
    <circle data-frame="true" cx="43.56" cy="43.56" r="41.14" style="fill:#ffffff;stroke:#000000;stroke-width:1.5"/>
    <path d="M 25.00,15.00 L 51.00,15.00 L 62.00,26.00 L 62.00,72.00 L 25.00,72.00 Z" style="fill:#ffffff;stroke:#000000;stroke-width:1.8;stroke-linejoin:round;stroke-linecap:round"/>
    <path d="M 51.00,15.00 L 51.00,26.00 L 62.00,26.00" style="fill:none;stroke:#000000;stroke-width:1.8;stroke-linecap:round;stroke-linejoin:round"/>
    <path d="M 43.50,40.50 L 48.93,43.65 L 43.50,46.80 L 38.07,43.65 Z" style="fill:#2E9E44;stroke:none"/>
    <path d="M 38.07,43.65 L 43.50,46.80 L 43.50,53.01 L 38.07,49.86 Z" style="fill:#d9d9d9;stroke:none"/>
    <path d="M 43.50,46.80 L 48.93,43.65 L 48.93,49.86 L 43.50,53.01 Z" style="fill:#b5b5b5;stroke:none"/>
    <path d="M 43.50,40.50 L 48.93,43.65 L 48.93,49.86 L 43.50,53.01 L 38.07,49.86 L 38.07,43.65 Z" style="fill:none;stroke:#000000;stroke-width:0.9;stroke-linejoin:round;stroke-linecap:round"/>
    <path d="M 38.07,43.65 L 43.50,46.80 L 48.93,43.65" style="fill:none;stroke:#000000;stroke-width:0.9;stroke-linecap:round;stroke-linejoin:round"/>
    <path d="M 43.50,46.80 L 43.50,53.01" style="fill:none;stroke:#000000;stroke-width:0.9;stroke-linecap:round;stroke-linejoin:round"/>
    <path d="M 43.50,34.10 L 48.93,37.25 L 43.50,40.41 L 38.07,37.25 Z" style="fill:#2E9E44;stroke:none"/>
    <path d="M 38.07,37.25 L 43.50,40.41 L 43.50,46.61 L 38.07,43.46 Z" style="fill:#d9d9d9;stroke:none"/>
    <path d="M 43.50,40.41 L 48.93,37.25 L 48.93,43.46 L 43.50,46.61 Z" style="fill:#b5b5b5;stroke:none"/>
    <path d="M 43.50,34.10 L 48.93,37.25 L 48.93,43.46 L 43.50,46.61 L 38.07,43.46 L 38.07,37.25 Z" style="fill:none;stroke:#000000;stroke-width:0.9;stroke-linejoin:round;stroke-linecap:round"/>
    <path d="M 38.07,37.25 L 43.50,40.41 L 48.93,37.25" style="fill:none;stroke:#000000;stroke-width:0.9;stroke-linecap:round;stroke-linejoin:round"/>
    <path d="M 43.50,40.41 L 43.50,46.61" style="fill:none;stroke:#000000;stroke-width:0.9;stroke-linecap:round;stroke-linejoin:round"/>
    <path d="M 37.90,43.75 L 43.33,46.90 L 37.90,50.05 L 32.47,46.90 Z" style="fill:#1E6FD9;stroke:none"/>
    <path d="M 32.47,46.90 L 37.90,50.05 L 37.90,56.26 L 32.47,53.11 Z" style="fill:#d9d9d9;stroke:none"/>
    <path d="M 37.90,50.05 L 43.33,46.90 L 43.33,53.11 L 37.90,56.26 Z" style="fill:#b5b5b5;stroke:none"/>
    <path d="M 37.90,43.75 L 43.33,46.90 L 43.33,53.11 L 37.90,56.26 L 32.47,53.11 L 32.47,46.90 Z" style="fill:none;stroke:#000000;stroke-width:0.9;stroke-linejoin:round;stroke-linecap:round"/>
    <path d="M 32.47,46.90 L 37.90,50.05 L 43.33,46.90" style="fill:none;stroke:#000000;stroke-width:0.9;stroke-linecap:round;stroke-linejoin:round"/>
    <path d="M 37.90,50.05 L 37.90,56.26" style="fill:none;stroke:#000000;stroke-width:0.9;stroke-linecap:round;stroke-linejoin:round"/>
    <path d="M 49.10,43.75 L 54.53,46.90 L 49.10,50.05 L 43.67,46.90 Z" style="fill:#F4B400;stroke:none"/>
    <path d="M 43.67,46.90 L 49.10,50.05 L 49.10,56.26 L 43.67,53.11 Z" style="fill:#d9d9d9;stroke:none"/>
    <path d="M 49.10,50.05 L 54.53,46.90 L 54.53,53.11 L 49.10,56.26 Z" style="fill:#b5b5b5;stroke:none"/>
    <path d="M 49.10,43.75 L 54.53,46.90 L 54.53,53.11 L 49.10,56.26 L 43.67,53.11 L 43.67,46.90 Z" style="fill:none;stroke:#000000;stroke-width:0.9;stroke-linejoin:round;stroke-linecap:round"/>
    <path d="M 43.67,46.90 L 49.10,50.05 L 54.53,46.90" style="fill:none;stroke:#000000;stroke-width:0.9;stroke-linecap:round;stroke-linejoin:round"/>
    <path d="M 49.10,50.05 L 49.10,56.26" style="fill:none;stroke:#000000;stroke-width:0.9;stroke-linecap:round;stroke-linejoin:round"/>
    <path d="M 37.90,37.35 L 43.33,40.50 L 37.90,43.66 L 32.47,40.50 Z" style="fill:#1E6FD9;stroke:none"/>
    <path d="M 32.47,40.50 L 37.90,43.66 L 37.90,49.86 L 32.47,46.71 Z" style="fill:#d9d9d9;stroke:none"/>
    <path d="M 37.90,43.66 L 43.33,40.50 L 43.33,46.71 L 37.90,49.86 Z" style="fill:#b5b5b5;stroke:none"/>
    <path d="M 37.90,37.35 L 43.33,40.50 L 43.33,46.71 L 37.90,49.86 L 32.47,46.71 L 32.47,40.50 Z" style="fill:none;stroke:#000000;stroke-width:0.9;stroke-linejoin:round;stroke-linecap:round"/>
    <path d="M 32.47,40.50 L 37.90,43.66 L 43.33,40.50" style="fill:none;stroke:#000000;stroke-width:0.9;stroke-linecap:round;stroke-linejoin:round"/>
    <path d="M 37.90,43.66 L 37.90,49.86" style="fill:none;stroke:#000000;stroke-width:0.9;stroke-linecap:round;stroke-linejoin:round"/>
    <path d="M 49.10,37.35 L 54.53,40.50 L 49.10,43.66 L 43.67,40.50 Z" style="fill:#E53935;stroke:none"/>
    <path d="M 43.67,40.50 L 49.10,43.66 L 49.10,49.86 L 43.67,46.71 Z" style="fill:#d9d9d9;stroke:none"/>
    <path d="M 49.10,43.66 L 54.53,40.50 L 54.53,46.71 L 49.10,49.86 Z" style="fill:#b5b5b5;stroke:none"/>
    <path d="M 49.10,37.35 L 54.53,40.50 L 54.53,46.71 L 49.10,49.86 L 43.67,46.71 L 43.67,40.50 Z" style="fill:none;stroke:#000000;stroke-width:0.9;stroke-linejoin:round;stroke-linecap:round"/>
    <path d="M 43.67,40.50 L 49.10,43.66 L 54.53,40.50" style="fill:none;stroke:#000000;stroke-width:0.9;stroke-linecap:round;stroke-linejoin:round"/>
    <path d="M 49.10,43.66 L 49.10,49.86" style="fill:none;stroke:#000000;stroke-width:0.9;stroke-linecap:round;stroke-linejoin:round"/>
    <path d="M 43.50,47.00 L 48.93,50.15 L 43.50,53.30 L 38.07,50.15 Z" style="fill:#E53935;stroke:none"/>
    <path d="M 38.07,50.15 L 43.50,53.30 L 43.50,59.51 L 38.07,56.36 Z" style="fill:#d9d9d9;stroke:none"/>
    <path d="M 43.50,53.30 L 48.93,50.15 L 48.93,56.36 L 43.50,59.51 Z" style="fill:#b5b5b5;stroke:none"/>
    <path d="M 43.50,47.00 L 48.93,50.15 L 48.93,56.36 L 43.50,59.51 L 38.07,56.36 L 38.07,50.15 Z" style="fill:none;stroke:#000000;stroke-width:0.9;stroke-linejoin:round;stroke-linecap:round"/>
    <path d="M 38.07,50.15 L 43.50,53.30 L 48.93,50.15" style="fill:none;stroke:#000000;stroke-width:0.9;stroke-linecap:round;stroke-linejoin:round"/>
    <path d="M 43.50,53.30 L 43.50,59.51" style="fill:none;stroke:#000000;stroke-width:0.9;stroke-linecap:round;stroke-linejoin:round"/>
    <path d="M 43.50,40.60 L 48.93,43.75 L 43.50,46.91 L 38.07,43.75 Z" style="fill:#F08A24;stroke:none"/>
    <path d="M 38.07,43.75 L 43.50,46.91 L 43.50,53.11 L 38.07,49.96 Z" style="fill:#d9d9d9;stroke:none"/>
    <path d="M 43.50,46.91 L 48.93,43.75 L 48.93,49.96 L 43.50,53.11 Z" style="fill:#b5b5b5;stroke:none"/>
    <path d="M 43.50,40.60 L 48.93,43.75 L 48.93,49.96 L 43.50,53.11 L 38.07,49.96 L 38.07,43.75 Z" style="fill:none;stroke:#000000;stroke-width:0.9;stroke-linejoin:round;stroke-linecap:round"/>
    <path d="M 38.07,43.75 L 43.50,46.91 L 48.93,43.75" style="fill:none;stroke:#000000;stroke-width:0.9;stroke-linecap:round;stroke-linejoin:round"/>
    <path d="M 43.50,46.91 L 43.50,53.11" style="fill:none;stroke:#000000;stroke-width:0.9;stroke-linecap:round;stroke-linejoin:round"/>
  </g>
</svg>
